<?xml version="1.0" encoding="UTF-8" standalone="no"?>
<svg
   xmlns:dc="http://purl.org/dc/elements/1.1/"
   xmlns:cc="http://creativecommons.org/ns#"
   xmlns:rdf="http://www.w3.org/1999/02/22-rdf-syntax-ns#"
   xmlns:svg="http://www.w3.org/2000/svg"
   xmlns="http://www.w3.org/2000/svg"
   xmlns:sodipodi="http://sodipodi.sourceforge.net/DTD/sodipodi-0.dtd"
   xmlns:inkscape="http://www.inkscape.org/namespaces/inkscape"
   enable-background="new 0 0 200 200"
   height="32"
   id="Layer_1"
   version="1.1"
   viewBox="0 0 32 32"
   width="32"
   xml:space="preserve"
   inkscape:version="0.92.5 (2060ec1f9f, 2020-04-08)"
   sodipodi:docname="GeneralPreferences.svg"
   inkscape:export-filename="/media/psf/Home/Documents/Code/TrenchBroom_qt/app/resources/graphics/images/GeneralPreferences.png"
   inkscape:export-xdpi="96"
   inkscape:export-ydpi="96"><metadata
     id="metadata19"><rdf:RDF><cc:Work
         rdf:about=""><dc:format>image/svg+xml</dc:format><dc:type
           rdf:resource="http://purl.org/dc/dcmitype/StillImage" /><dc:title></dc:title></cc:Work></rdf:RDF></metadata><defs
     id="defs17" /><sodipodi:namedview
     pagecolor="#ffffff"
     bordercolor="#666666"
     borderopacity="1"
     objecttolerance="10"
     gridtolerance="10"
     guidetolerance="10"
     inkscape:pageopacity="0"
     inkscape:pageshadow="2"
     inkscape:window-width="2488"
     inkscape:window-height="1373"
     id="namedview15"
     showgrid="true"
     showguides="true"
     inkscape:guide-bbox="true"
     inkscape:zoom="21.213203"
     inkscape:cx="-7.9672216"
     inkscape:cy="10.163645"
     inkscape:window-x="72"
     inkscape:window-y="30"
     inkscape:window-maximized="1"
     inkscape:current-layer="g3"
     inkscape:snap-bbox="true"
     inkscape:snap-nodes="false"
     inkscape:snap-others="false"
     inkscape:bbox-nodes="true"><inkscape:grid
       type="xygrid"
       id="grid4147"
       empspacing="4" /></sodipodi:namedview><g
     id="g3"
     transform="translate(0,-168)"><g
       id="g1230"
       transform="matrix(0.02857143,0,0,0.02857084,1.7142857,169.71486)"
       style="stroke-width:35.00035477;fill:#3f3f3f;fill-opacity:1"
       inkscape:export-filename="/media/psf/Home/Documents/Code/TrenchBroom_qt/app/resources/graphics/images/g1230.png"
       inkscape:export-xdpi="96"
       inkscape:export-ydpi="96"><g
         transform="matrix(0.1,0,0,-0.1,0,511)"
         id="g1228"
         style="stroke-width:35.00035477;fill:#3f3f3f;fill-opacity:1"><path
           d="m 4485.5,4975.3 c -20.4,-22.5 -61.3,-202.1 -106.2,-475.7 -40.8,-240.9 -83.7,-459.4 -93.9,-481.8 -12.3,-32.7 -42.9,-47 -114.3,-59.2 -53.1,-8.2 -183.8,-40.8 -292,-73.5 l -196,-59.2 -81.7,93.9 c -44.9,53.1 -187.8,220.5 -316.5,373.6 -153.1,181.7 -251.1,279.7 -281.7,283.8 -30.6,4.1 -181.7,-71.5 -428.8,-212.3 -428.8,-245 -453.3,-263.4 -453.3,-324.6 0,-22.5 71.5,-238.9 161.3,-479.8 l 161.3,-439 -226.6,-228.7 -224.6,-228.7 -73.5,28.6 c -292,114.3 -814.6,296 -849.3,296 -61.3,0 -79.6,-22.5 -324.6,-453.3 -140.9,-247 -216.4,-398.1 -212.3,-428.8 4.1,-30.6 102.1,-128.6 283.8,-281.7 153.1,-128.6 320.5,-271.5 373.6,-316.5 l 93.9,-81.7 -59.2,-196 c -32.7,-108.2 -65.3,-238.9 -73.5,-292 -12.3,-71.5 -26.5,-102.1 -59.2,-114.3 -22.5,-10.2 -234.8,-51 -471.6,-91.9 C 383.8,691.7 171.4,644.7 144.9,628.4 100,600 100,593.9 100,112 c 0,-436.9 4.1,-488 36.7,-516.5 20.4,-20.4 202.1,-61.3 463.5,-106.2 236.8,-40.8 449.2,-79.6 473.7,-83.7 32.7,-8.2 51,-34.7 67.4,-98 10.2,-47 44.9,-177.6 77.6,-289.9 30.6,-112.3 55.1,-212.3 55.1,-220.5 0,-10.2 -165.4,-157.2 -367.5,-326.7 -245,-208.3 -369.5,-326.7 -373.6,-357.3 -4.1,-30.6 71.5,-181.7 212.3,-428.8 247,-432.8 263.4,-453.3 324.6,-453.3 24.5,0 240.9,73.5 481.8,161.3 l 436.9,161.3 228.7,-226.6 228.7,-224.6 -28.6,-73.5 c -114.3,-292 -296,-814.6 -296,-849.3 0,-61.3 22.5,-77.6 453.3,-324.6 247,-140.9 398.1,-216.4 428.8,-212.3 30.6,4.1 145,122.5 343,357.3 163.3,194 306.3,359.3 316.5,371.6 14.3,12.2 87.8,0 216.4,-38.8 108.2,-30.6 238.9,-63.3 292,-71.5 71.5,-12.2 102.1,-26.5 114.3,-59.2 10.2,-22.5 53.1,-240.9 93.9,-481.8 44.9,-269.5 87.8,-453.3 106.2,-473.7 28.6,-32.7 79.6,-36.7 516.5,-36.7 481.8,0 488,0 516.6,47 16.3,24.5 63.3,236.8 104.1,473.7 40.8,236.8 81.7,449.2 91.9,471.6 12.2,32.7 42.9,47 114.3,59.2 53.1,8.2 183.8,40.8 292,73.5 l 196,59.2 81.7,-93.9 c 44.9,-53.1 187.8,-220.5 316.5,-373.6 153.1,-179.7 251.1,-279.7 281.7,-283.8 28.6,-4.1 183.8,71.5 428.8,212.3 432.8,249.1 453.3,263.4 453.3,324.6 0,24.5 -73.5,240.9 -161.3,481.8 l -161.3,436.9 224.6,228.7 226.6,228.7 73.5,-28.6 c 292,-114.3 814.6,-296 849.3,-296 61.3,0 77.6,22.5 324.6,453.3 140.9,245 216.4,398.1 212.3,428.8 -4.1,30.6 -130.7,151.1 -373.6,357.3 -202.1,169.5 -365.5,322.6 -363.4,336.9 0,14.3 34.7,151.1 73.5,302.2 53.1,204.2 81.7,277.7 110.3,289.9 20.4,8.2 230.7,47 465.5,87.8 236.8,40.8 449.2,87.8 475.7,104.1 44.6,28.4 44.6,34.5 44.6,518.4 0,483.9 0,490 -44.9,518.6 -26.5,16.3 -238.9,63.3 -475.7,104.1 -234.8,40.8 -445.1,79.6 -465.5,87.8 -28.6,12.3 -57.2,83.7 -110.3,289.9 -38.8,151.1 -71.5,287.9 -73.5,302.2 -2.1,14.3 161.3,165.4 363.4,336.9 245,208.3 369.5,326.7 373.6,357.3 4.1,30.6 -71.5,181.7 -212.3,428.8 -247.1,430.8 -263.4,453.3 -324.6,453.3 -34.7,0 -557.4,-181.7 -849.3,-296 l -73.5,-28.6 -224.6,228.7 -226.6,228.7 161.3,439 c 87.8,240.9 161.3,457.3 161.3,481.8 0,59.2 -22.5,75.5 -453.3,322.6 -247,140.9 -398.1,216.4 -428.8,212.3 -30.6,-4.1 -128.6,-102.1 -281.7,-283.8 -128.6,-153.1 -271.5,-320.5 -316.5,-373.6 l -81.7,-93.9 -196,59.2 c -108.2,32.7 -238.9,65.3 -292,73.5 -71.5,12.3 -102.1,26.5 -116.4,59.2 -8.2,22.5 -51,236.8 -89.8,471.6 -40.8,236.8 -87.8,449.2 -104.1,475.7 -28.6,44.9 -34.7,44.9 -516.6,44.9 -436.8,-0.2 -487.8,-4.3 -516.4,-34.9 z m 873.8,-2588.8 c 496.1,-79.6 906.5,-292 1265.8,-651.3 C 7094.7,1265.6 7335.7,647 7301,1.8 c -14.3,-281.7 -61.3,-492.1 -165.4,-751.3 -116.4,-287.9 -283.8,-539 -510.4,-765.6 -598.2,-600.3 -1459.8,-822.9 -2268.3,-590.1 -357.3,104.1 -675.8,292 -961.6,565.5 -798.3,767.7 -929,1988.6 -312.4,2936 112.3,171.5 459.4,518.6 630.9,630.9 498.1,324.5 1080,451.1 1645.5,359.3 z"
           id="path1226"
           inkscape:connector-curvature="0"
           style="stroke-width:35.00035477;fill:#3f3f3f;fill-opacity:1" /></g></g></g></svg>