<?xml version="1.0" encoding="UTF-8" standalone="no"?>
<svg
   xmlns:dc="http://purl.org/dc/elements/1.1/"
   xmlns:cc="http://creativecommons.org/ns#"
   xmlns:rdf="http://www.w3.org/1999/02/22-rdf-syntax-ns#"
   xmlns:svg="http://www.w3.org/2000/svg"
   xmlns="http://www.w3.org/2000/svg"
   xmlns:sodipodi="http://sodipodi.sourceforge.net/DTD/sodipodi-0.dtd"
   xmlns:inkscape="http://www.inkscape.org/namespaces/inkscape"
   inkscape:export-ydpi="96"
   inkscape:export-xdpi="96"
   inkscape:export-filename="/media/psf/Home/Documents/Code/TrenchBroom_qt/app/resources/graphics/images/Refresh.png"
   version="1.1"
   x="0"
   y="0"
   width="16"
   height="16"
   viewBox="0, 0, 16, 16"
   id="svg94"
   sodipodi:docname="Refresh.svg"
   inkscape:version="0.92.5 (2060ec1f9f, 2020-04-08)">
  <metadata
     id="metadata100">
    <rdf:RDF>
      <cc:Work
         rdf:about="">
        <dc:format>image/svg+xml</dc:format>
        <dc:type
           rdf:resource="http://purl.org/dc/dcmitype/StillImage" />
        <dc:title></dc:title>
      </cc:Work>
    </rdf:RDF>
  </metadata>
  <defs
     id="defs98" />
  <sodipodi:namedview
     inkscape:document-rotation="0"
     pagecolor="#ffffff"
     bordercolor="#666666"
     borderopacity="1"
     objecttolerance="10"
     gridtolerance="10000"
     guidetolerance="10"
     inkscape:pageopacity="0"
     inkscape:pageshadow="2"
     inkscape:window-width="2488"
     inkscape:window-height="1373"
     id="namedview96"
     showgrid="true"
     inkscape:zoom="40.4375"
     inkscape:cx="3.2148377"
     inkscape:cy="9.6767701"
     inkscape:window-x="72"
     inkscape:window-y="30"
     inkscape:window-maximized="1"
     inkscape:current-layer="svg94"
     inkscape:snap-nodes="false"
     inkscape:snap-others="false"
     inkscape:snap-bbox="false"
     inkscape:bbox-nodes="true">
    <inkscape:grid
       id="grid837"
       type="xygrid"
       empspacing="4" />
  </sodipodi:namedview>
  <path
     style="fill:#3f3f3f;fill-opacity:1;stroke:none;stroke-width:2;stroke-linecap:butt;stroke-linejoin:round;stroke-miterlimit:4;stroke-dasharray:none;stroke-dashoffset:0;stroke-opacity:1;paint-order:normal"
     d="M 8 2 A 6 6 0 0 0 2.3945312 5.8671875 L 4.2753906 6.5546875 A 4 4 0 0 1 8 4 A 4 4 0 0 1 11.576172 6.2109375 L 13.359375 5.3203125 A 6 6 0 0 0 8 2 z M 11.740234 9.4023438 A 4 4 0 0 1 8 12 A 4 4 0 0 1 4.4121094 9.7617188 L 2.6308594 10.660156 A 6 6 0 0 0 8 14 A 6 6 0 0 0 13.615234 10.105469 L 11.740234 9.4023438 z "
     id="path2643" />
  <ellipse
     style="fill:none;fill-opacity:0.24888892;stroke:none;stroke-width:1.00000024;stroke-miterlimit:4;stroke-dasharray:none;stroke-dashoffset:10;stroke-opacity:1"
     id="path1647"
     cx="7.9419036"
     cy="8.0074339"
     rx="6.5851779"
     ry="6.5962367" />
  <path
     style="fill:#3f3f3f;fill-opacity:1;stroke:none;stroke-width:0.99999994px;stroke-linecap:butt;stroke-linejoin:miter;stroke-opacity:1"
     d="M 10.466309,9.7511009 14.280382,10.95644 13.27735,7.4932155 Z"
     id="path1668"
     inkscape:connector-curvature="0"
     sodipodi:nodetypes="cccc" />
  <path
     style="fill:#3f3f3f;fill-opacity:1;stroke:none;stroke-width:0.99999994px;stroke-linecap:butt;stroke-linejoin:miter;stroke-opacity:1"
     d="M 5.4782182,6.3492501 1.6641452,5.143911 2.6671772,8.6071355 Z"
     id="path1668-6"
     inkscape:connector-curvature="0"
     sodipodi:nodetypes="cccc" />
</svg>
