<?xml version="1.0" encoding="UTF-8" standalone="no"?>
<svg
   xmlns:dc="http://purl.org/dc/elements/1.1/"
   xmlns:cc="http://creativecommons.org/ns#"
   xmlns:rdf="http://www.w3.org/1999/02/22-rdf-syntax-ns#"
   xmlns:svg="http://www.w3.org/2000/svg"
   xmlns="http://www.w3.org/2000/svg"
   xmlns:sodipodi="http://sodipodi.sourceforge.net/DTD/sodipodi-0.dtd"
   xmlns:inkscape="http://www.inkscape.org/namespaces/inkscape"
   inkscape:version="1.0rc1 (09960d6, 2020-04-09)"
   sodipodi:docname="ConsoleIcon.svg"
   id="svg93"
   viewBox="0, 0, 16, 16"
   height="16"
   width="16"
   y="0"
   x="0"
   version="1.1">
  <metadata
     id="metadata97">
    <rdf:RDF>
      <cc:Work
         rdf:about="">
        <dc:format>image/svg+xml</dc:format>
        <dc:type
           rdf:resource="http://purl.org/dc/dcmitype/StillImage" />
      </cc:Work>
    </rdf:RDF>
  </metadata>
  <sodipodi:namedview
     inkscape:current-layer="svg93"
     inkscape:window-maximized="0"
     inkscape:window-y="23"
     inkscape:window-x="0"
     inkscape:cy="7.7194932"
     inkscape:cx="8.5935085"
     inkscape:zoom="40.4375"
     showgrid="false"
     id="namedview95"
     inkscape:window-height="827"
     inkscape:window-width="1107"
     inkscape:pageshadow="2"
     inkscape:pageopacity="0"
     guidetolerance="10"
     gridtolerance="10"
     objecttolerance="10"
     borderopacity="1"
     bordercolor="#666666"
     pagecolor="#ffffff" />
  <defs
     id="defs84">
    <linearGradient
       y2="14.998"
       x2="8.157"
       y1="3.002"
       x1="7.843"
       gradientUnits="userSpaceOnUse"
       id="Gradient_1">
      <stop
         id="stop79"
         stop-color="#0093FF"
         offset="0" />
      <stop
         id="stop81"
         stop-color="#004980"
         offset="1" />
    </linearGradient>
  </defs>
  <g
     id="Layer_1">
    <path
       id="path86"
       fill-opacity="0.25"
       fill="#000000"
       d="M11,3.563 L14,3.563 L14,4.563 L11,4.563 z" />
    <path
       id="path88"
       fill-opacity="0.15"
       fill="#000000"
       d="M2,5 L14,5 L14,14 L2,14 z" />
    <path
       id="path90"
       fill="url(#Gradient_1)"
       d="M14,3 C14,3 15,3 15,4 C15,5 15,13 15,14 C15,15 14,15 14,15 L2,15 C2,15 1,15 1,14 C1,13 1,5 1,4 C1,3 2,3 2,3 z M11,3.562 L11,4.562 L14,4.562 L14,3.562 z M2,5 L2,14 L14,14 L14,5 z M4,7 L7,9 L7,10 L4,12 L4,10.859 L6.034,9.445 L4.002,8.148 z M12,11 L12,12 L8,12 L8,11 z" />
  </g>
</svg>
