<?xml version="1.0" encoding="UTF-8" standalone="no"?>
<svg
   xmlns:dc="http://purl.org/dc/elements/1.1/"
   xmlns:cc="http://creativecommons.org/ns#"
   xmlns:rdf="http://www.w3.org/1999/02/22-rdf-syntax-ns#"
   xmlns:svg="http://www.w3.org/2000/svg"
   xmlns="http://www.w3.org/2000/svg"
   xmlns:sodipodi="http://sodipodi.sourceforge.net/DTD/sodipodi-0.dtd"
   xmlns:inkscape="http://www.inkscape.org/namespaces/inkscape"
   inkscape:version="1.0rc1 (09960d6, 2020-04-09)"
   sodipodi:docname="DefaultGameIcon.svg"
   id="svg58"
   viewBox="0, 0, 32, 32"
   height="32"
   width="32"
   y="0"
   x="0"
   version="1.1">
  <metadata
     id="metadata64">
    <rdf:RDF>
      <cc:Work
         rdf:about="">
        <dc:format>image/svg+xml</dc:format>
        <dc:type
           rdf:resource="http://purl.org/dc/dcmitype/StillImage" />
      </cc:Work>
    </rdf:RDF>
  </metadata>
  <defs
     id="defs62" />
  <sodipodi:namedview
     inkscape:current-layer="svg58"
     inkscape:window-maximized="0"
     inkscape:window-y="23"
     inkscape:window-x="0"
     inkscape:cy="16"
     inkscape:cx="16"
     inkscape:zoom="20.21875"
     showgrid="false"
     id="namedview60"
     inkscape:window-height="768"
     inkscape:window-width="1163"
     inkscape:pageshadow="2"
     inkscape:pageopacity="0"
     guidetolerance="10"
     gridtolerance="10"
     objecttolerance="10"
     borderopacity="1"
     bordercolor="#666666"
     pagecolor="#ffffff" />
  <g
     id="Layer_1">
    <g
       id="g51">
      <path
         id="path47"
         fill="#FFFFFF"
         d="M6,4 L26,4 C27.105,4 28,4.895 28,6 L28,26 C28,27.105 27.105,28 26,28 L6,28 C4.895,28 4,27.105 4,26 L4,6 C4,4.895 4.895,4 6,4 z" />
      <path
         id="path49"
         fill="#5C5C5C"
         d="M26,3 C27.657,3 29,4.343 29,6 L29,26 C29,27.657 27.657,29 26,29 L6,29 C4.343,29 3,27.657 3,26 L3,6 C3,4.343 4.343,3 6,3 L26,3 z M26,4 L6,4 C4.895,4 4,4.895 4,6 L4,26 C4,27.105 4.895,28 6,28 L26,28 C27.105,28 28,27.105 28,26 L28,6 C28,4.895 27.105,4 26,4 z" />
    </g>
    <text
       id="text55"
       transform="matrix(1, 0, 0, 1, 16, 16)"><tspan
         id="tspan53"
         fill="#5C5C5C"
         font-size="24"
         font-family="HelveticaNeue-Bold"
         y="8.5"
         x="-6.672">?</tspan></text>
  </g>
</svg>
