<?xml version="1.0" encoding="UTF-8" standalone="no"?>
<svg
   xmlns:dc="http://purl.org/dc/elements/1.1/"
   xmlns:cc="http://creativecommons.org/ns#"
   xmlns:rdf="http://www.w3.org/1999/02/22-rdf-syntax-ns#"
   xmlns:svg="http://www.w3.org/2000/svg"
   xmlns="http://www.w3.org/2000/svg"
   xmlns:sodipodi="http://sodipodi.sourceforge.net/DTD/sodipodi-0.dtd"
   xmlns:inkscape="http://www.inkscape.org/namespaces/inkscape"
   version="1.1"
   x="0"
   y="0"
   width="16"
   height="16"
   viewBox="0, 0, 16, 16"
   id="svg168"
   sodipodi:docname="Visible.svg"
   inkscape:version="1.0rc1 (09960d6f05, 2020-04-09)">
  <metadata
     id="metadata174">
    <rdf:RDF>
      <cc:Work
         rdf:about="">
        <dc:format>image/svg+xml</dc:format>
        <dc:type
           rdf:resource="http://purl.org/dc/dcmitype/StillImage" />
      </cc:Work>
    </rdf:RDF>
  </metadata>
  <defs
     id="defs172" />
  <sodipodi:namedview
     inkscape:document-rotation="0"
     pagecolor="#ffffff"
     bordercolor="#666666"
     borderopacity="1"
     objecttolerance="10"
     gridtolerance="10"
     guidetolerance="10"
     inkscape:pageopacity="0"
     inkscape:pageshadow="2"
     inkscape:window-width="2560"
     inkscape:window-height="1377"
     id="namedview170"
     showgrid="true"
     inkscape:zoom="17"
     inkscape:cx="8"
     inkscape:cy="8"
     inkscape:window-x="1912"
     inkscape:window-y="-8"
     inkscape:window-maximized="1"
     inkscape:current-layer="svg168">
    <inkscape:grid
       id="grid834"
       type="xygrid" />
  </sodipodi:namedview>
  <g
     style="fill:#7f7f7f;fill-opacity:1"
     id="Layer_1">
    <path
       style="fill:#7f7f7f;fill-opacity:1"
       d="M4.5,13.5 L4.5,13.5"
       fill-opacity="0"
       stroke="#000000"
       stroke-width="1"
       id="path159" />
    <path
       style="fill:#7f7f7f;fill-opacity:1"
       d="M12.5,5.5 L12.5,5.5"
       fill-opacity="0"
       stroke="#000000"
       stroke-width="1"
       id="path161" />
    <path
       style="fill:#7f7f7f;fill-opacity:1"
       d="M8,4 C12,4 15,7 15,8 C15,9 12,12 8,12 C4,12 1,9 1,8 C1,7 4,4 8,4 z M8,5 C5,5 2,7 2,8 C2,9 5,11 8,11 C11,11 14,9 14,8 C14,7 11,5 8,5 z"
       fill="#494949"
       id="path163" />
    <path
       style="fill:#7f7f7f;fill-opacity:1"
       d="M8,10 C6.895,10 6,9.105 6,8 C6,6.895 6.895,6 8,6 C9.105,6 10,6.895 10,8 C10,9.105 9.105,10 8,10 z"
       fill="#494949"
       id="path165" />
  </g>
</svg>
