<?xml version="1.0" encoding="UTF-8" standalone="no"?>
<svg
   xmlns:dc="http://purl.org/dc/elements/1.1/"
   xmlns:cc="http://creativecommons.org/ns#"
   xmlns:rdf="http://www.w3.org/1999/02/22-rdf-syntax-ns#"
   xmlns:svg="http://www.w3.org/2000/svg"
   xmlns="http://www.w3.org/2000/svg"
   xmlns:sodipodi="http://sodipodi.sourceforge.net/DTD/sodipodi-0.dtd"
   xmlns:inkscape="http://www.inkscape.org/namespaces/inkscape"
   inkscape:export-ydpi="96"
   inkscape:export-xdpi="96"
   inkscape:export-filename="/media/psf/Home/Documents/Code/TrenchBroom_qt/app/resources/graphics/images/Lock_off.png"
   version="1.1"
   x="0"
   y="0"
   width="16"
   height="16"
   viewBox="0, 0, 16, 16"
   id="svg88"
   sodipodi:docname="Lock_off.svg"
   inkscape:version="0.92.5 (2060ec1f9f, 2020-04-08)">
  <metadata
     id="metadata94">
    <rdf:RDF>
      <cc:Work
         rdf:about="">
        <dc:format>image/svg+xml</dc:format>
        <dc:type
           rdf:resource="http://purl.org/dc/dcmitype/StillImage" />
      </cc:Work>
    </rdf:RDF>
  </metadata>
  <defs
     id="defs92" />
  <sodipodi:namedview
     inkscape:document-rotation="0"
     pagecolor="#ffffff"
     bordercolor="#666666"
     borderopacity="1"
     objecttolerance="10"
     gridtolerance="10"
     guidetolerance="10"
     inkscape:pageopacity="0"
     inkscape:pageshadow="2"
     inkscape:window-width="2488"
     inkscape:window-height="1373"
     id="namedview90"
     showgrid="true"
     inkscape:zoom="40.4375"
     inkscape:cx="3.2148377"
     inkscape:cy="8"
     inkscape:window-x="72"
     inkscape:window-y="30"
     inkscape:window-maximized="1"
     inkscape:current-layer="svg88">
    <inkscape:grid
       id="grid834"
       type="xygrid" />
  </sodipodi:namedview>
  <path
     style="fill:#3f3f3f;fill-opacity:1;stroke:#000000;stroke-width:1;stroke-linecap:butt;stroke-linejoin:miter;stroke-miterlimit:4;stroke-dasharray:0, 10.99999998999999917;stroke-dashoffset:0;stroke-opacity:1"
     d="M 3.5039062 7 C 2.7516135 7 2 7.6673177 2 8.3339844 L 2 13.666016 C 2 14.332681 2.7516135 15 3.5039062 15 L 12.53125 15 C 13.283543 15 14.037109 14.332681 14.037109 13.666016 L 14.037109 8.3339844 C 14.037109 7.6673177 13.283543 7 12.53125 7 L 3.5039062 7 z M 8 9 A 2 2 0 0 1 10 11 A 2 2 0 0 1 8 13 A 2 2 0 0 1 6 11 A 2 2 0 0 1 8 9 z "
     id="path4576" />
  <path
     style="fill:none;fill-opacity:1;stroke:#3f3f3f;stroke-width:2;stroke-linecap:butt;stroke-linejoin:miter;stroke-miterlimit:4;stroke-dasharray:none;stroke-opacity:1"
     d="M 7.5309663,3.9258115 9.1399252,2.7378488 c 0,0 2.1871678,-2.05435981 4.1671038,0.6272371 1.979939,2.6815969 -0.603216,4.1996366 -0.603216,4.1996366 L 11.094855,8.752685"
     id="path4578"
     inkscape:connector-curvature="0"
     sodipodi:nodetypes="ccscc"
     inkscape:export-filename="./path4578.png"
     inkscape:export-xdpi="96"
     inkscape:export-ydpi="96" />
</svg>
