<?xml version="1.0" encoding="UTF-8" standalone="no"?>
<svg
   xmlns:dc="http://purl.org/dc/elements/1.1/"
   xmlns:cc="http://creativecommons.org/ns#"
   xmlns:rdf="http://www.w3.org/1999/02/22-rdf-syntax-ns#"
   xmlns:svg="http://www.w3.org/2000/svg"
   xmlns="http://www.w3.org/2000/svg"
   xmlns:sodipodi="http://sodipodi.sourceforge.net/DTD/sodipodi-0.dtd"
   xmlns:inkscape="http://www.inkscape.org/namespaces/inkscape"
   inkscape:export-ydpi="96"
   inkscape:export-xdpi="96"
   inkscape:export-filename="C:\Users\Eric\Documents\TrenchBroom\app\resources\graphics\images\Lock_on.png"
   version="1.1"
   x="0"
   y="0"
   width="16"
   height="16"
   viewBox="0, 0, 16, 16"
   id="svg88"
   sodipodi:docname="Lock_on.svg"
   inkscape:version="1.0rc1 (09960d6f05, 2020-04-09)">
  <metadata
     id="metadata94">
    <rdf:RDF>
      <cc:Work
         rdf:about="">
        <dc:format>image/svg+xml</dc:format>
        <dc:type
           rdf:resource="http://purl.org/dc/dcmitype/StillImage" />
        <dc:title></dc:title>
      </cc:Work>
    </rdf:RDF>
  </metadata>
  <defs
     id="defs92" />
  <sodipodi:namedview
     inkscape:document-rotation="0"
     pagecolor="#ffffff"
     bordercolor="#666666"
     borderopacity="1"
     objecttolerance="10"
     gridtolerance="10"
     guidetolerance="10"
     inkscape:pageopacity="0"
     inkscape:pageshadow="2"
     inkscape:window-width="2560"
     inkscape:window-height="1377"
     id="namedview90"
     showgrid="true"
     inkscape:zoom="45.254834"
     inkscape:cx="6.8429233"
     inkscape:cy="12.3065"
     inkscape:window-x="1912"
     inkscape:window-y="-8"
     inkscape:window-maximized="1"
     inkscape:current-layer="svg88">
    <inkscape:grid
       id="grid834"
       type="xygrid" />
  </sodipodi:namedview>
  <path
     id="path79"
     fill="#494949"
     d="M 10.031,6 C 11.118,6 12,6.878 12,7.961 v 3.063 C 12,12.107 11.118,13 10.031,13 H 5.969 C 4.882,13 4,12.122 4,11.039 V 7.976 C 4,6.893 4.882,6.015 5.969,6.015 Z M 9.451,7 6.549,7.011 c -0.776,0 -1.406,0.627 -1.406,1.4 v 2.188 c 0,0.774 0.63,1.401 1.406,1.401 h 2.902 c 0.776,0 1.406,-0.638 1.406,-1.411 V 8.4 C 10.857,7.627 10.227,7 9.451,7 Z"
     style="fill:#7f7f7f;fill-opacity:1"
     inkscape:connector-curvature="0" />
  <path
     id="path81"
     fill="#494949"
     d="M 8,10 C 7.448,10 7,9.552 7,9 7,8.448 7.448,8 8,8 8.552,8 9,8.448 9,9 9,9.552 8.552,10 8,10 Z"
     style="fill:#7f7f7f;fill-opacity:1"
     inkscape:connector-curvature="0" />
  <path
     id="path83"
     fill="#494949"
     d="M 8.494,9.65 9,11.167 H 7 L 7.506,9.65 7.611,9.755 c 0.519,0.105 0.259,0.105 0.778,0 z"
     style="fill:#7f7f7f;fill-opacity:1"
     inkscape:connector-curvature="0" />
  <path
     id="path85"
     fill="#494949"
     d="M 9.996869,6.1745816 C 9.912724,5.0722022 9.669479,4.0652821 8.660438,3.4324215 8.470226,3.3129205 8.220617,3.3461545 8,3.3037281 c -1.999698,0 -1.999698,2.999547 -1.999698,2.999547 H 5.000453 c 0,-0.271529 0.03111,-0.6759941 0.125158,-1.1448059 C 5.292488,4.322669 5.602201,3.6000059 6.136774,3.0654331 6.626091,2.5761152 7.26178,2.3038791 8.000707,2.303172 c 0.738219,0 1.373908,0.2722361 1.863226,0.761554 0.53528,0.5352799 0.844286,1.2586501 1.01187,2.0937432 0.09334,0.4681047 0.125158,0.8732769 0.124451,1.145513 h -0.999849 z"
     style="fill:#7f7f7f;fill-opacity:1"
     inkscape:connector-curvature="0" />
</svg>
