<?xml version="1.0" encoding="UTF-8" standalone="no"?>
<svg
   xmlns:dc="http://purl.org/dc/elements/1.1/"
   xmlns:cc="http://creativecommons.org/ns#"
   xmlns:rdf="http://www.w3.org/1999/02/22-rdf-syntax-ns#"
   xmlns:svg="http://www.w3.org/2000/svg"
   xmlns="http://www.w3.org/2000/svg"
   xmlns:sodipodi="http://sodipodi.sourceforge.net/DTD/sodipodi-0.dtd"
   xmlns:inkscape="http://www.inkscape.org/namespaces/inkscape"
   inkscape:export-ydpi="96"
   inkscape:export-xdpi="96"
   inkscape:export-filename="C:\Users\Eric\Documents\TrenchBroom\app\resources\graphics\images\Lock_off.png"
   version="1.1"
   x="0"
   y="0"
   width="16"
   height="16"
   viewBox="0, 0, 16, 16"
   id="svg88"
   sodipodi:docname="Lock_off.svg"
   inkscape:version="1.0rc1 (09960d6f05, 2020-04-09)">
  <metadata
     id="metadata94">
    <rdf:RDF>
      <cc:Work
         rdf:about="">
        <dc:format>image/svg+xml</dc:format>
        <dc:type
           rdf:resource="http://purl.org/dc/dcmitype/StillImage" />
      </cc:Work>
    </rdf:RDF>
  </metadata>
  <defs
     id="defs92" />
  <sodipodi:namedview
     inkscape:document-rotation="0"
     pagecolor="#ffffff"
     bordercolor="#666666"
     borderopacity="1"
     objecttolerance="10"
     gridtolerance="10"
     guidetolerance="10"
     inkscape:pageopacity="0"
     inkscape:pageshadow="2"
     inkscape:window-width="2560"
     inkscape:window-height="1377"
     id="namedview90"
     showgrid="true"
     inkscape:zoom="40.4375"
     inkscape:cx="8"
     inkscape:cy="8"
     inkscape:window-x="1912"
     inkscape:window-y="-8"
     inkscape:window-maximized="1"
     inkscape:current-layer="svg88">
    <inkscape:grid
       id="grid834"
       type="xygrid" />
  </sodipodi:namedview>
  <g
     style="fill:#7f7f7f;fill-opacity:1"
     id="Layer_1">
    <path
       style="fill:#7f7f7f;fill-opacity:1"
       d="M10.031,6 C11.118,6 12,6.878 12,7.961 L12,11.024 C12,12.107 11.118,13 10.031,13 L5.969,13 C4.882,13 4,12.122 4,11.039 L4,7.976 C4,6.893 4.882,6.015 5.969,6.015 L10.031,6 z M9.451,7 L6.549,7.011 C5.773,7.011 5.143,7.638 5.143,8.411 L5.143,10.599 C5.143,11.373 5.773,12 6.549,12 L9.451,12 C10.227,12 10.857,11.362 10.857,10.589 L10.857,8.4 C10.857,7.627 10.227,7 9.451,7 z"
       fill="#494949"
       id="path79" />
    <path
       style="fill:#7f7f7f;fill-opacity:1"
       d="M8,10 C7.448,10 7,9.552 7,9 C7,8.448 7.448,8 8,8 C8.552,8 9,8.448 9,9 C9,9.552 8.552,10 8,10 z"
       fill="#494949"
       id="path81" />
    <path
       style="fill:#7f7f7f;fill-opacity:1"
       d="M8.494,9.65 L9,11.167 L7,11.167 L7.506,9.65 L7.611,9.755 C8.13,9.86 7.87,9.86 8.389,9.755 z"
       fill="#494949"
       id="path83" />
    <path
       style="fill:#7f7f7f;fill-opacity:1"
       d="M9.917,5.928 C10.637,5.089 11.177,4.205 10.911,3.044 C10.861,2.825 10.661,2.672 10.535,2.486 C9.121,1.072 7,3.193 7,3.193 L6.293,2.486 C6.485,2.294 6.793,2.03 7.191,1.765 C7.9,1.292 8.63,1 9.386,1 C10.078,1 10.72,1.257 11.243,1.779 C11.765,2.301 12.022,2.943 12.022,3.635 C12.022,4.392 11.729,5.122 11.257,5.831 C10.992,6.228 10.728,6.537 10.535,6.729 L9.828,6.022 L9.917,5.928 z"
       fill="#494949"
       id="path85" />
  </g>
</svg>
