<?xml version="1.0" encoding="UTF-8" standalone="no"?>
<svg
   xmlns:dc="http://purl.org/dc/elements/1.1/"
   xmlns:cc="http://creativecommons.org/ns#"
   xmlns:rdf="http://www.w3.org/1999/02/22-rdf-syntax-ns#"
   xmlns:svg="http://www.w3.org/2000/svg"
   xmlns="http://www.w3.org/2000/svg"
   xmlns:sodipodi="http://sodipodi.sourceforge.net/DTD/sodipodi-0.dtd"
   xmlns:inkscape="http://www.inkscape.org/namespaces/inkscape"
   enable-background="new 0 0 200 200"
   height="32"
   id="Layer_1"
   version="1.1"
   viewBox="0 0 32 32"
   width="32"
   xml:space="preserve"
   inkscape:version="0.92.5 (2060ec1f9f, 2020-04-08)"
   sodipodi:docname="MousePreferences.svg"
   inkscape:export-filename="/media/psf/Home/Documents/Code/TrenchBroom_qt/app/resources/graphics/images/MousePreferences.png"
   inkscape:export-xdpi="96"
   inkscape:export-ydpi="96"><metadata
     id="metadata19"><rdf:RDF><cc:Work
         rdf:about=""><dc:format>image/svg+xml</dc:format><dc:type
           rdf:resource="http://purl.org/dc/dcmitype/StillImage" /><dc:title /></cc:Work></rdf:RDF></metadata><defs
     id="defs17" /><sodipodi:namedview
     pagecolor="#ffffff"
     bordercolor="#666666"
     borderopacity="1"
     objecttolerance="10"
     gridtolerance="10"
     guidetolerance="10"
     inkscape:pageopacity="0"
     inkscape:pageshadow="2"
     inkscape:window-width="2488"
     inkscape:window-height="1373"
     id="namedview15"
     showgrid="true"
     showguides="true"
     inkscape:guide-bbox="true"
     inkscape:zoom="32"
     inkscape:cx="0.5344982"
     inkscape:cy="11.540427"
     inkscape:window-x="72"
     inkscape:window-y="30"
     inkscape:window-maximized="1"
     inkscape:current-layer="g3"><inkscape:grid
       type="xygrid"
       id="grid4147"
       empspacing="4" /></sodipodi:namedview><g
     id="g3"
     transform="translate(0,-168)"><path
       d="m 15.574489,175.0811 c -0.262273,0.14178 -0.440981,0.41679 -0.440981,0.73128 l 0,3.38499 c 0,0.31431 0.178708,0.58932 0.440981,0.73112 0.01177,0.006 0.0237,0.0104 0.03474,0.0161 v -0.0161 c 0.110467,0.0644 0.237505,0.10178 0.370423,0.10178 0.133452,0 0.259956,-0.0373 0.370066,-0.10178 v 0.0161 c 0.0114,-0.006 0.02371,-0.0103 0.03474,-0.0161 0.262272,-0.1418 0.44098,-0.41681 0.44098,-0.73112 v -3.38481 c 0,-0.31467 -0.178708,-0.58968 -0.44098,-0.7313 -0.01123,-0.006 -0.02334,-0.0103 -0.03474,-0.016 v 0.016 c -0.11011,-0.064 -0.236792,-0.10213 -0.370066,-0.10213 -0.133095,0 -0.259956,0.0381 -0.370423,0.10213 v -0.016 c -0.01122,0.006 -0.02298,0.0101 -0.03474,0.0159 z"
       id="path5"
       style="fill:#3f3f3f;fill-opacity:1"
       inkscape:connector-curvature="0"
       sodipodi:nodetypes="csscccscccsscccscccc" /><path
       d="m 6.9714414,179.30083 v 1.63721 C 9.5285895,182.35937 11.863103,182.93892 14.9872,183 v -1.94439 c -0.01122,-0.003 -0.02298,-0.005 -0.03474,-0.008 -0.677773,-0.17726 -0.578793,-0.60809 -0.578793,-1.32955 v -4.16611 c 0,-0.72199 -0.0988,-1.33325 0.578793,-1.51015 0.01177,-0.003 0.0237,-0.005 0.03474,-0.008 v -2.02313 h -0.613713 c -4.070733,0 -7.4020456,3.28108 -7.4020456,7.29046 z"
       id="path7"
       style="fill:#3f3f3f;fill-opacity:1"
       inkscape:connector-curvature="0"
       sodipodi:nodetypes="cccccsscccscc" /><path
       d="M 17.546225,172.01037 H 16.93162 v 2.02293 c 0.0114,0.003 0.0237,0.005 0.03474,0.008 0.678485,0.1769 0.579861,0.78816 0.579861,1.51014 v 4.16592 c 0,0.72165 0.09862,1.15249 -0.579861,1.32956 -0.01122,0.003 -0.02334,0.005 -0.03474,0.008 L 16.951686,183 c 3.124631,-0.0611 5.439436,-0.64132 7.996051,-2.06267 v -1.63719 c 0,-4.00903 -3.331135,-7.29011 -7.401512,-7.29011 z"
       id="path9"
       style="fill:#3f3f3f;fill-opacity:1"
       inkscape:connector-curvature="0"
       sodipodi:nodetypes="ccccssccccscc" /><path
       d="m 6.9714414,182.993 v 7.76421 c 0,4.01026 3.3314916,7.29116 7.4020456,7.29116 h 3.172738 c 4.070377,0 7.401512,-3.2809 7.401512,-7.29116 V 182.993 c -2.679554,1.41538 -5.680915,2.03821 -8.927952,2.03821 -3.247036,0 -6.3687904,-0.62266 -9.0483436,-2.03821 z"
       id="path11"
       style="fill:#3f3f3f;fill-opacity:1"
       inkscape:connector-curvature="0"
       sodipodi:nodetypes="csssscsc" /></g></svg>