<?xml version="1.0" encoding="UTF-8" standalone="no"?>
<svg
   xmlns:dc="http://purl.org/dc/elements/1.1/"
   xmlns:cc="http://creativecommons.org/ns#"
   xmlns:rdf="http://www.w3.org/1999/02/22-rdf-syntax-ns#"
   xmlns:svg="http://www.w3.org/2000/svg"
   xmlns="http://www.w3.org/2000/svg"
   xmlns:sodipodi="http://sodipodi.sourceforge.net/DTD/sodipodi-0.dtd"
   xmlns:inkscape="http://www.inkscape.org/namespaces/inkscape"
   enable-background="new 0 0 200 200"
   height="32"
   id="Layer_1"
   version="1.1"
   viewBox="0 0 32 32"
   width="32"
   xml:space="preserve"
   inkscape:version="0.91 r13725"
   sodipodi:docname="Mouse.svg"
   inkscape:export-filename="/Users/kristian/Desktop/Mouse.png"
   inkscape:export-xdpi="90"
   inkscape:export-ydpi="90"><metadata
     id="metadata19"><rdf:RDF><cc:Work
         rdf:about=""><dc:format>image/svg+xml</dc:format><dc:type
           rdf:resource="http://purl.org/dc/dcmitype/StillImage" /><dc:title></dc:title></cc:Work></rdf:RDF></metadata><defs
     id="defs17" /><sodipodi:namedview
     pagecolor="#ffffff"
     bordercolor="#666666"
     borderopacity="1"
     objecttolerance="10"
     gridtolerance="10"
     guidetolerance="10"
     inkscape:pageopacity="0"
     inkscape:pageshadow="2"
     inkscape:window-width="1656"
     inkscape:window-height="1109"
     id="namedview15"
     showgrid="true"
     showguides="true"
     inkscape:guide-bbox="true"
     inkscape:zoom="17.619956"
     inkscape:cx="14.130405"
     inkscape:cy="17.124392"
     inkscape:window-x="670"
     inkscape:window-y="166"
     inkscape:window-maximized="0"
     inkscape:current-layer="g3"><inkscape:grid
       type="xygrid"
       id="grid4147" /><sodipodi:guide
       position="7,13"
       orientation="1,0"
       id="guide4149" /><sodipodi:guide
       position="25,-3"
       orientation="1,0"
       id="guide4151" /><sodipodi:guide
       position="28,28"
       orientation="0,1"
       id="guide4153" /><sodipodi:guide
       position="29,2"
       orientation="0,1"
       id="guide4155" /></sodipodi:namedview><g
     id="g3"
     transform="translate(0,-168)"><path
       d="m 15.554423,174.82025 c -0.262273,0.14178 -0.440981,0.41679 -0.440981,0.73128 l 0,2.42184 c 0,0.31431 0.178708,0.58932 0.440981,0.73112 0.01177,0.006 0.0237,0.0104 0.03474,0.0161 l 0,-0.0161 c 0.110467,0.0644 0.237505,0.10178 0.370423,0.10178 0.133452,0 0.259956,-0.0373 0.370066,-0.10178 l 0,0.0161 c 0.0114,-0.006 0.02371,-0.0103 0.03474,-0.0161 0.262272,-0.1418 0.44098,-0.41681 0.44098,-0.73112 l 0,-2.42166 c 0,-0.31467 -0.178708,-0.58968 -0.44098,-0.7313 -0.01123,-0.006 -0.02334,-0.0103 -0.03474,-0.016 l 0,0.016 c -0.11011,-0.064 -0.236792,-0.10213 -0.370066,-0.10213 -0.133095,0 -0.259956,0.0381 -0.370423,0.10213 l 0,-0.016 c -0.01122,0.006 -0.02298,0.0101 -0.03474,0.0159 z"
       id="path5"
       style="fill:#808080;fill-opacity:1"
       inkscape:connector-curvature="0" /><path
       d="m 6.9714414,179.30083 0,1.63721 c 2.5571481,1.42133 5.4936266,2.25336 8.6177236,2.31444 l 0,-2.01628 c -0.01122,-0.003 -0.02298,-0.005 -0.03474,-0.008 -0.677773,-0.17726 -1.180758,-0.78868 -1.180758,-1.51014 l 0,-4.16611 c 0,-0.72199 0.503163,-1.33325 1.180758,-1.51015 0.01177,-0.003 0.0237,-0.005 0.03474,-0.008 l 0,-2.02313 -1.215678,0 c -4.070733,0 -7.4020456,3.28108 -7.4020456,7.29046 z"
       id="path7"
       style="fill:#808080;fill-opacity:1"
       inkscape:connector-curvature="0" /><path
       d="m 17.546225,172.01037 -1.21657,0 0,2.02293 c 0.0114,0.003 0.0237,0.005 0.03474,0.008 0.678485,0.1769 1.181826,0.78816 1.181826,1.51014 l 0,4.16592 c 0,0.72165 -0.503341,1.33308 -1.181826,1.51015 -0.01122,0.003 -0.02334,0.005 -0.03474,0.008 l 0,2.01627 c 3.124631,-0.0611 6.061467,-0.8931 8.618082,-2.31445 l 0,-1.63719 c 0,-4.00903 -3.331135,-7.29011 -7.401512,-7.29011 z"
       id="path9"
       style="fill:#808080;fill-opacity:1"
       inkscape:connector-curvature="0" /><path
       d="m 6.9714414,181.769 0,8.98821 c 0,4.01026 3.3314916,7.29116 7.4020456,7.29116 l 3.172738,0 c 4.070377,0 7.401512,-3.2809 7.401512,-7.29116 l 0,-8.98821 c -2.679554,1.41538 -5.741112,2.2188 -8.988149,2.2188 -3.247036,0 -6.3085934,-0.80325 -8.9881466,-2.2188 z"
       id="path11"
       style="fill:#808080;fill-opacity:1"
       inkscape:connector-curvature="0" /></g></svg>