<?xml version="1.0" encoding="UTF-8" standalone="no"?>
<!-- Created with Inkscape (http://www.inkscape.org/) -->

<svg
   xmlns:dc="http://purl.org/dc/elements/1.1/"
   xmlns:cc="http://creativecommons.org/ns#"
   xmlns:rdf="http://www.w3.org/1999/02/22-rdf-syntax-ns#"
   xmlns:svg="http://www.w3.org/2000/svg"
   xmlns="http://www.w3.org/2000/svg"
   xmlns:sodipodi="http://sodipodi.sourceforge.net/DTD/sodipodi-0.dtd"
   xmlns:inkscape="http://www.inkscape.org/namespaces/inkscape"
   width="24"
   height="24"
   viewBox="0 0 24.000001 24"
   id="svg2"
   version="1.1"
   inkscape:version="0.92.5 (2060ec1f9f, 2020-04-08)"
   sodipodi:docname="TextureLockOn.svg"
   inkscape:export-filename="/home/kristian/Documents/Code/TrenchBroom/app/resources/graphics/images/TextureLockOn.png"
   inkscape:export-xdpi="96"
   inkscape:export-ydpi="96">
  <defs
     id="defs4">
    <inkscape:perspective
       sodipodi:type="inkscape:persp3d"
       inkscape:vp_x="4.4999999 : 29.75 : 1"
       inkscape:vp_y="0 : 1000 : 0"
       inkscape:vp_z="68.500003 : 29.75 : 1"
       inkscape:persp3d-origin="36.500002 : 9.75 : 1"
       id="perspective4155" />
  </defs>
  <sodipodi:namedview
     id="base"
     pagecolor="#ffffff"
     bordercolor="#666666"
     borderopacity="1.0"
     inkscape:pageopacity="0.0"
     inkscape:pageshadow="2"
     inkscape:zoom="32"
     inkscape:cx="-1.2284202"
     inkscape:cy="12.403749"
     inkscape:document-units="px"
     inkscape:current-layer="layer1"
     showgrid="true"
     units="px"
     inkscape:showpageshadow="false"
     showguides="false"
     inkscape:snap-grids="true"
     inkscape:window-width="2488"
     inkscape:window-height="1373"
     inkscape:window-x="72"
     inkscape:window-y="30"
     inkscape:window-maximized="1"
     inkscape:snap-bbox="false"
     inkscape:bbox-paths="true"
     objecttolerance="10000"
     inkscape:object-nodes="true"
     inkscape:snap-smooth-nodes="true">
    <inkscape:grid
       type="xygrid"
       id="grid3336"
       empspacing="4"
       originx="0"
       originy="0" />
    <inkscape:grid
       type="xygrid"
       id="grid4272"
       empspacing="4"
       originx="-0.50000002"
       originy="-0.5"
       dotted="true" />
  </sodipodi:namedview>
  <metadata
     id="metadata7">
    <rdf:RDF>
      <cc:Work
         rdf:about="">
        <dc:format>image/svg+xml</dc:format>
        <dc:type
           rdf:resource="http://purl.org/dc/dcmitype/StillImage" />
        <dc:title />
      </cc:Work>
    </rdf:RDF>
  </metadata>
  <g
     inkscape:label="Ebene 1"
     inkscape:groupmode="layer"
     id="layer1"
     transform="translate(0,-1028.3623)">
    <path
       inkscape:connector-curvature="0"
       d="m 17,1038.3623 h -2 v -2 c 0,-1.5 -0.872727,-3 -2.999999,-3 -2.1272732,0 -3.000001,1.5 -3.000001,3 v 2 H 7 v -2 c 0,-2.5 2.2727278,-5 5.000001,-5 2.727272,0 4.999999,2.5 4.999999,5 z"
       id="path4"
       style="fill:#7f7f7f;fill-opacity:1"
       sodipodi:nodetypes="ccsssccsssc" />
    <path
       inkscape:connector-curvature="0"
       d="M 17.15,1050.3623 H 6.75 c -0.927273,0 -1.75,-0.9 -1.75,-1.75 v -8.5 c 0,-0.85 0.822727,-1.75 1.75,-1.75 h 10.5 c 0.927271,0 1.75,0.9 1.75,1.75 v 8.5 c 0,0.85 -0.922729,1.75 -1.85,1.75 z m -9.65,-10 c -0.3272729,0 -0.5,0.2 -0.5,0.5 v 7 c 0,0.3 0.1727271,0.5 0.5,0.5 h 9 c 0.327272,0 0.5,-0.2 0.5,-0.5 v -7 c 0,-0.3 -0.172728,-0.5 -0.5,-0.5 z"
       id="path6"
       style="fill:#7f7f7f;fill-opacity:1;stroke:none;stroke-width:0;stroke-miterlimit:4;stroke-dasharray:none;stroke-opacity:1"
       sodipodi:nodetypes="ssssssssssssssssss" />
    <ellipse
       cx="12.000001"
       cy="1043.3621"
       id="circle8"
       rx="1.0909091"
       ry="1.0000001"
       style="fill:#7f7f7f;fill-opacity:1" />
    <path
       inkscape:connector-curvature="0"
       d="m 12.272729,1043.3623 h -0.545456 l -0.545454,3 h 1.636363 z"
       id="path10"
       style="fill:#7f7f7f;fill-opacity:1" />
  </g>
</svg>
