<?xml version="1.0" encoding="UTF-8" standalone="no"?>
<!-- Generator: Adobe Illustrator 19.1.0, SVG Export Plug-In . SVG Version: 6.00 Build 0)  -->

<svg
   xmlns:dc="http://purl.org/dc/elements/1.1/"
   xmlns:cc="http://creativecommons.org/ns#"
   xmlns:rdf="http://www.w3.org/1999/02/22-rdf-syntax-ns#"
   xmlns:svg="http://www.w3.org/2000/svg"
   xmlns="http://www.w3.org/2000/svg"
   xmlns:sodipodi="http://sodipodi.sourceforge.net/DTD/sodipodi-0.dtd"
   xmlns:inkscape="http://www.inkscape.org/namespaces/inkscape"
   version="1.1"
   id="Capa_1"
   x="0px"
   y="0px"
   viewBox="0 0 331.387 331.387"
   style="enable-background:new 0 0 331.387 331.387;"
   xml:space="preserve"
   inkscape:version="0.91 r13725"
   sodipodi:docname="imac.svg"><metadata
     id="metadata3454"><rdf:RDF><cc:Work
         rdf:about=""><dc:format>image/svg+xml</dc:format><dc:type
           rdf:resource="http://purl.org/dc/dcmitype/StillImage" /></cc:Work></rdf:RDF></metadata><defs
     id="defs3452" /><sodipodi:namedview
     pagecolor="#ffffff"
     bordercolor="#666666"
     borderopacity="1"
     objecttolerance="10"
     gridtolerance="10"
     guidetolerance="10"
     inkscape:pageopacity="0"
     inkscape:pageshadow="2"
     inkscape:window-width="1373"
     inkscape:window-height="682"
     id="namedview3450"
     showgrid="false"
     inkscape:zoom="1.3669818"
     inkscape:cx="113.75425"
     inkscape:cy="165.6935"
     inkscape:window-x="0"
     inkscape:window-y="0"
     inkscape:window-maximized="0"
     inkscape:current-layer="Capa_1" /><g
     id="g3416"
     style="fill:#808080;fill-opacity:1"><path
       d="m 306.605,25.849 -281.83,0 C 11.112,25.849 0,36.967 0,50.631 l 0,157.226 0,12.854 0,16.144 c 0,13.67 11.112,24.775 24.775,24.775 l 111.39,0 c -0.122,8.297 -1.009,19.538 -4.531,27.443 l -19.164,0 c -4.55,0 -8.233,3.689 -8.233,8.233 0,4.557 3.683,8.233 8.233,8.233 l 106.448,0 c 4.55,0 8.233,-3.676 8.233,-8.233 0,-4.544 -3.683,-8.233 -8.233,-8.233 l -19.171,0 c -3.515,-7.899 -4.415,-19.146 -4.531,-27.443 l 111.396,0 c 13.663,0 24.775,-11.112 24.775,-24.775 l 0,-16.145 0,-12.854 0,-157.225 C 331.38,36.967 320.268,25.849 306.605,25.849 Z m 11.922,211.006 c 0,6.575 -5.347,11.922 -11.922,11.922 l -281.83,0 c -6.575,0 -11.922,-5.347 -11.922,-11.922 l 0,-16.145 305.68,0 0,16.144 -0.006,0 z m -305.673,-28.992 0,-157.232 c 0,-6.575 5.347,-11.928 11.922,-11.928 l 281.83,0 c 6.575,0 11.922,5.354 11.922,11.928 l 0,157.226 -305.674,0 0,0.006 z"
       id="path3418"
       style="stroke:none;stroke-opacity:1;fill:#808080;fill-opacity:1"
       inkscape:connector-curvature="0" /></g><g
     id="g3420" /><g
     id="g3422" /><g
     id="g3424" /><g
     id="g3426" /><g
     id="g3428" /><g
     id="g3430" /><g
     id="g3432" /><g
     id="g3434" /><g
     id="g3436" /><g
     id="g3438" /><g
     id="g3440" /><g
     id="g3442" /><g
     id="g3444" /><g
     id="g3446" /><g
     id="g3448" /></svg>