<?xml version="1.0" encoding="UTF-8" standalone="no"?>
<svg
   xmlns:dc="http://purl.org/dc/elements/1.1/"
   xmlns:cc="http://creativecommons.org/ns#"
   xmlns:rdf="http://www.w3.org/1999/02/22-rdf-syntax-ns#"
   xmlns:svg="http://www.w3.org/2000/svg"
   xmlns="http://www.w3.org/2000/svg"
   xmlns:sodipodi="http://sodipodi.sourceforge.net/DTD/sodipodi-0.dtd"
   xmlns:inkscape="http://www.inkscape.org/namespaces/inkscape"
   inkscape:version="1.0rc1 (09960d6, 2020-04-09)"
   sodipodi:docname="Visible.svg"
   id="svg168"
   viewBox="0, 0, 16, 16"
   height="16"
   width="16"
   y="0"
   x="0"
   version="1.1">
  <metadata
     id="metadata174">
    <rdf:RDF>
      <cc:Work
         rdf:about="">
        <dc:format>image/svg+xml</dc:format>
        <dc:type
           rdf:resource="http://purl.org/dc/dcmitype/StillImage" />
      </cc:Work>
    </rdf:RDF>
  </metadata>
  <defs
     id="defs172" />
  <sodipodi:namedview
     inkscape:current-layer="svg168"
     inkscape:window-maximized="0"
     inkscape:window-y="23"
     inkscape:window-x="0"
     inkscape:cy="8"
     inkscape:cx="8"
     inkscape:zoom="17"
     showgrid="false"
     id="namedview170"
     inkscape:window-height="480"
     inkscape:window-width="712"
     inkscape:pageshadow="2"
     inkscape:pageopacity="0"
     guidetolerance="10"
     gridtolerance="10"
     objecttolerance="10"
     borderopacity="1"
     bordercolor="#666666"
     pagecolor="#ffffff" />
  <g
     id="Layer_1">
    <path
       id="path159"
       stroke-width="1"
       stroke="#000000"
       fill-opacity="0"
       d="M4.5,13.5 L4.5,13.5" />
    <path
       id="path161"
       stroke-width="1"
       stroke="#000000"
       fill-opacity="0"
       d="M12.5,5.5 L12.5,5.5" />
    <path
       id="path163"
       fill="#494949"
       d="M8,4 C12,4 15,7 15,8 C15,9 12,12 8,12 C4,12 1,9 1,8 C1,7 4,4 8,4 z M8,5 C5,5 2,7 2,8 C2,9 5,11 8,11 C11,11 14,9 14,8 C14,7 11,5 8,5 z" />
    <path
       id="path165"
       fill="#494949"
       d="M8,10 C6.895,10 6,9.105 6,8 C6,6.895 6.895,6 8,6 C9.105,6 10,6.895 10,8 C10,9.105 9.105,10 8,10 z" />
  </g>
</svg>
