<?xml version="1.0" encoding="UTF-8" standalone="no"?>
<svg
   xmlns:dc="http://purl.org/dc/elements/1.1/"
   xmlns:cc="http://creativecommons.org/ns#"
   xmlns:rdf="http://www.w3.org/1999/02/22-rdf-syntax-ns#"
   xmlns:svg="http://www.w3.org/2000/svg"
   xmlns="http://www.w3.org/2000/svg"
   xmlns:sodipodi="http://sodipodi.sourceforge.net/DTD/sodipodi-0.dtd"
   xmlns:inkscape="http://www.inkscape.org/namespaces/inkscape"
   inkscape:version="1.0 (4035a4fb49, 2020-05-01)"
   sodipodi:docname="ColorPreferences.svg"
   version="1.1"
   width="32"
   viewBox="0 0 31.875 31.875"
   height="32"
   enable-background="new 0 0 510 510"
   id="Capa_1">
  <metadata
     id="metadata883">
    <rdf:RDF>
      <cc:Work
         rdf:about="">
        <dc:format>image/svg+xml</dc:format>
        <dc:type
           rdf:resource="http://purl.org/dc/dcmitype/StillImage" />
        <dc:title></dc:title>
      </cc:Work>
    </rdf:RDF>
  </metadata>
  <defs
     id="defs881" />
  <sodipodi:namedview
     inkscape:current-layer="Capa_1"
     inkscape:window-maximized="1"
     inkscape:window-y="-8"
     inkscape:window-x="-8"
     inkscape:cy="21.907734"
     inkscape:cx="19.454206"
     inkscape:zoom="16.241359"
     showgrid="false"
     id="namedview879"
     inkscape:window-height="988"
     inkscape:window-width="1680"
     inkscape:pageshadow="2"
     inkscape:pageopacity="0"
     guidetolerance="10"
     gridtolerance="10"
     objecttolerance="10"
     borderopacity="1"
     bordercolor="#666666"
     pagecolor="#ffffff" />
  <path
     style="stroke-width:0.0625;fill:#3f3f3f;fill-opacity:1"
     id="path872"
     d="m 6.790581,12.178141 c -1.9015622,0 -3.448562,1.547 -3.448562,3.448562 0,1.901562 1.5469998,3.448562 3.448562,3.448562 1.9015622,0 3.448562,-1.547 3.448562,-3.448562 0,-1.901562 -1.5469998,-3.448562 -3.448562,-3.448562 z m 0,5.022249 c -0.8676874,0 -1.5736873,-0.705937 -1.5736873,-1.573687 0,-0.86775 0.7059999,-1.573688 1.5736873,-1.573688 0.8676873,0 1.5736872,0.705938 1.5736872,1.573688 0,0.86775 -0.7059999,1.573687 -1.5736872,1.573687 z" />
  <path
     style="stroke-width:0.0625;fill:#3f3f3f;fill-opacity:1"
     id="path874"
     d="m 12.897392,20.323202 c -1.901499,0 -3.448499,1.547 -3.448499,3.448562 0,1.9015 1.547,3.448499 3.448499,3.448499 1.901563,0 3.448562,-1.546999 3.448562,-3.448499 0,-1.901562 -1.546999,-3.448562 -3.448562,-3.448562 z m 0,5.022187 c -0.867687,0 -1.573624,-0.705938 -1.573624,-1.573688 0,-0.867749 0.705937,-1.573687 1.573624,-1.573687 0.86775,0 1.573688,0.705938 1.573688,1.573687 6.2e-5,0.86775 -0.705938,1.573688 -1.573688,1.573688 z" />
  <path
     style="stroke-width:0.0625;fill:#3f3f3f;fill-opacity:1"
     id="path876"
     d="m 31.011265,20.293327 c -0.0062,-0.0061 -0.01238,-0.01213 -0.01869,-0.01813 L 27.746451,17.21201 c 1.817124,-1.374 2.637999,-3.806062 1.891499,-6.055937 C 26.11864,0.53839266 12.595143,-2.8301068 4.5370813,5.1062044 -1.4979802,11.050078 -1.4416677,20.634014 4.2843314,26.535826 c 5.1440617,5.301937 13.2495606,6.046562 19.2319346,2.130562 2.801499,-1.83325 1.513562,-6.196999 -1.838812,-6.196999 -2.50375,0 -2.9245,-3.500687 -0.559438,-4.100124 l 5.718937,6.060874 c 0.006,0.0063 0.012,0.01256 0.01819,0.01875 1.146438,1.149062 3.008687,1.152125 4.158125,0.0026 1.149312,-1.14925 1.149312,-3.0095 -0.002,-4.158187 z m -12.112561,2.944062 c 0.753187,0.71375 1.74,1.106812 2.778812,1.106812 1.49725,0 2.06175,1.93575 0.812062,2.7535 C 17.253642,30.5252 10.142393,29.881325 5.6299562,25.230326 0.56883197,20.01389 0.59864446,11.642391 5.8734561,6.4538917 12.941767,-0.49873218 24.763953,2.4100174 27.85839,11.746203 c 0.524313,1.580188 -0.130875,3.29725 -1.505125,4.151187 L 21.146141,10.983703 C 21.461391,9.4700787 21.024766,7.8743915 19.880766,6.7304542 18.444954,5.2945794 13.921642,4.578892 11.96133,4.3659545 c -0.594562,-0.06475 -1.098,0.437875 -1.033312,1.0333124 0.214687,1.9679372 0.926187,6.4809991 2.364562,7.9194361 1.14475,1.144625 2.741249,1.580375 4.253687,1.265187 l 2.193374,2.3245 c -2.335624,1.267937 -2.809874,4.463124 -0.840937,6.328999 z M 14.618267,11.992953 C 13.91183,11.286516 13.280642,8.5997039 12.947392,6.3852667 c 2.2145,0.3331875 4.901312,0.9644374 5.607687,1.6708748 1.08775,1.0877498 1.087937,2.8487495 0,3.9368115 -1.085312,1.085438 -2.846687,1.090125 -3.936812,0 z M 29.68764,23.125827 c -0.413125,0.413124 -1.08175,0.414999 -1.497312,0.0067 -0.479875,-0.508562 -8.392437,-8.894249 -8.833312,-9.361436 0.369875,-0.274687 0.701375,-0.606187 0.976438,-0.976437 l 9.361498,8.833936 c 0.408688,0.416 0.406438,1.083437 -0.0073,1.49725 z" />
</svg>
