<?xml version="1.0" encoding="UTF-8" standalone="no"?>
<!-- Generator: Adobe Illustrator 19.1.0, SVG Export Plug-In . SVG Version: 6.00 Build 0)  -->

<svg
   version="1.1"
   id="Capa_1"
   x="0px"
   y="0px"
   viewBox="0 0 16 16"
   xml:space="preserve"
   inkscape:version="1.1 (c4e8f9e, 2021-05-24)"
   sodipodi:docname="Folder.svg"
   width="16"
   height="16"
   inkscape:export-filename="/media/psf/Home/Documents/Code/TrenchBroom_qt/app/resources/graphics/images/ViewPreferences.png"
   inkscape:export-xdpi="96"
   inkscape:export-ydpi="96"
   xmlns:inkscape="http://www.inkscape.org/namespaces/inkscape"
   xmlns:sodipodi="http://sodipodi.sourceforge.net/DTD/sodipodi-0.dtd"
   xmlns="http://www.w3.org/2000/svg"
   xmlns:svg="http://www.w3.org/2000/svg"
   xmlns:rdf="http://www.w3.org/1999/02/22-rdf-syntax-ns#"
   xmlns:cc="http://creativecommons.org/ns#"
   xmlns:dc="http://purl.org/dc/elements/1.1/"><metadata
     id="metadata3454"><rdf:RDF><cc:Work
         rdf:about=""><dc:format>image/svg+xml</dc:format><dc:type
           rdf:resource="http://purl.org/dc/dcmitype/StillImage" /></cc:Work></rdf:RDF></metadata><defs
     id="defs3452" /><sodipodi:namedview
     pagecolor="#ffffff"
     bordercolor="#666666"
     borderopacity="1"
     objecttolerance="10"
     gridtolerance="10000"
     guidetolerance="10"
     inkscape:pageopacity="0"
     inkscape:pageshadow="2"
     inkscape:window-width="2269"
     inkscape:window-height="1255"
     id="namedview3450"
     showgrid="true"
     inkscape:zoom="55.377305"
     inkscape:cx="10.726416"
     inkscape:cy="7.7558848"
     inkscape:window-x="291"
     inkscape:window-y="25"
     inkscape:window-maximized="0"
     inkscape:current-layer="Capa_1"
     inkscape:snap-grids="true"
     inkscape:snap-nodes="true"
     inkscape:snap-others="false"
     inkscape:snap-global="true"
     inkscape:pagecheckerboard="0"
     width="16px"
     inkscape:snap-bbox="true"
     inkscape:bbox-paths="false"
     inkscape:bbox-nodes="true"
     inkscape:object-paths="true"
     inkscape:snap-smooth-nodes="true"><inkscape:grid
       type="xygrid"
       id="grid4534"
       empspacing="4" /></sodipodi:namedview><g
     id="g3420"
     transform="translate(0,-299.38699)" /><g
     id="g3422"
     transform="translate(0,-299.38699)" /><g
     id="g3424"
     transform="translate(0,-299.38699)" /><g
     id="g3426"
     transform="translate(0,-299.38699)" /><g
     id="g3428"
     transform="translate(0,-299.38699)" /><g
     id="g3430"
     transform="translate(0,-299.38699)" /><g
     id="g3432"
     transform="translate(0,-299.38699)" /><g
     id="g3434"
     transform="translate(0,-299.38699)" /><g
     id="g3436"
     transform="translate(0,-299.38699)" /><g
     id="g3438"
     transform="translate(0,-299.38699)" /><g
     id="g3440"
     transform="translate(0,-299.38699)" /><g
     id="g3442"
     transform="translate(0,-299.38699)" /><g
     id="g3444"
     transform="translate(0,-299.38699)" /><g
     id="g3446"
     transform="translate(0,-299.38699)" /><g
     id="g3448"
     transform="translate(0,-299.38699)" /><path
     id="rect1039"
     style="fill:#3f3f3f;stroke-width:3.77953;stroke-linecap:round;stroke-linejoin:round"
     d="M 2 2 C 1.446 2 1 2.446 1 3 L 1 5 L 1 10 L 1 13 C 1 13.554 1.446 14 2 14 L 14 14 C 14.554 14 15 13.554 15 13 L 15 5 C 15 4.446 14.554 4 14 4 L 8 4 L 8 3 C 8 2.446 7.554 2 7 2 L 2 2 z M 2 3 L 7 3 L 7 4 L 2 4 L 2 3 z M 2 5 L 14 5 L 14 13 L 2 13 L 2 5 z " /></svg>
