<?xml version="1.0" encoding="UTF-8" standalone="no"?>
<!-- Uploaded to: SVG Repo, www.svgrepo.com, Generator: SVG Repo Mixer Tools -->

<svg
   fill="#000000"
   width="32"
   height="32"
   viewBox="0 0 0.64 0.64"
   version="1.1"
   id="svg1"
   sodipodi:docname="UpdatePreferences.svg"
   xml:space="preserve"
   inkscape:version="1.4 (e7c3feb1, 2024-10-09)"
   xmlns:inkscape="http://www.inkscape.org/namespaces/inkscape"
   xmlns:sodipodi="http://sodipodi.sourceforge.net/DTD/sodipodi-0.dtd"
   xmlns="http://www.w3.org/2000/svg"
   xmlns:svg="http://www.w3.org/2000/svg"><defs
     id="defs1"><linearGradient
       id="swatch2"
       inkscape:swatch="solid"><stop
         style="stop-color:#404040;stop-opacity:1;"
         offset="0"
         id="stop2" /></linearGradient><linearGradient
       id="swatch1"
       inkscape:swatch="solid"><stop
         style="stop-color:#ffffff;stop-opacity:1;"
         offset="0"
         id="stop1" /></linearGradient></defs><sodipodi:namedview
     id="namedview1"
     pagecolor="#ffffff"
     bordercolor="#666666"
     borderopacity="1.0"
     inkscape:showpageshadow="2"
     inkscape:pageopacity="0.0"
     inkscape:pagecheckerboard="0"
     inkscape:deskcolor="#d1d1d1"
     showgrid="true"
     inkscape:zoom="14.813333"
     inkscape:cx="18.59811"
     inkscape:cy="14.851485"
     inkscape:window-width="1864"
     inkscape:window-height="1013"
     inkscape:window-x="0"
     inkscape:window-y="25"
     inkscape:window-maximized="0"
     inkscape:current-layer="svg1"><inkscape:grid
       id="grid1"
       units="px"
       originx="0"
       originy="0"
       spacingx="0.02"
       spacingy="0.02"
       empcolor="#0099e5"
       empopacity="0.30196078"
       color="#0099e5"
       opacity="0.14901961"
       empspacing="5"
       enabled="true"
       visible="true" /></sodipodi:namedview><path
     id="rect1"
     style="fill:#404040;stroke-width:0.0199999;stroke-linecap:round;stroke-linejoin:bevel;fill-opacity:1"
     d="M 0.25489205 -0.1971788 C 0.247671 -0.18995774 0.2432277 -0.17999647 0.2432277 -0.16893019 L 0.24321883 -0.10169979 L 0.16968624 -0.028167206 C 0.15402755 -0.01250852 0.15404495 0.012721069 0.16972526 0.028401377 L 0.24324881 0.10192493 L 0.24324039 0.16981824 C 0.24324039 0.19195082 0.26104824 0.20975867 0.28318082 0.20975867 L 0.35107413 0.20975027 L 0.42445947 0.28313563 C 0.44013978 0.29881593 0.46536937 0.29883334 0.48102806 0.28317466 L 0.55442264 0.20978008 L 0.62192925 0.20977141 C 0.64406182 0.20977141 0.66186981 0.19196343 0.66186981 0.16983086 L 0.66187849 0.10232425 L 0.73541109 0.028791661 C 0.75106977 0.013132975 0.75105237 -0.012096614 0.73537207 -0.027776922 L 0.66184852 -0.10130048 L 0.66185712 -0.16891758 C 0.66185712 -0.19105015 0.64404927 -0.208858 0.6219167 -0.208858 L 0.5542996 -0.20884941 L 0.48063785 -0.28251117 C 0.46495755 -0.29819148 0.43972796 -0.29820889 0.42406927 -0.2825502 L 0.35039866 -0.2088796 L 0.28316827 -0.20887075 C 0.27210198 -0.20887075 0.2621131 -0.20439985 0.25489205 -0.1971788 z M 0.33933346 -0.11290299 L 0.5231911 -0.098634007 L 0.46666154 -0.042104452 L 0.59402865 0.085262673 L 0.53749909 0.14179223 L 0.41013198 0.014425102 L 0.35360242 0.070954656 L 0.33933346 -0.11290299 z "
     transform="matrix(0.70759447,0.70661876,-0.70759437,0.70661886,0,0)" /></svg>
