<?xml version="1.0" encoding="UTF-8" standalone="no"?>
<!-- Generator: Adobe Illustrator 19.1.0, SVG Export Plug-In . SVG Version: 6.00 Build 0)  -->

<svg
   xmlns:dc="http://purl.org/dc/elements/1.1/"
   xmlns:cc="http://creativecommons.org/ns#"
   xmlns:rdf="http://www.w3.org/1999/02/22-rdf-syntax-ns#"
   xmlns:svg="http://www.w3.org/2000/svg"
   xmlns="http://www.w3.org/2000/svg"
   xmlns:sodipodi="http://sodipodi.sourceforge.net/DTD/sodipodi-0.dtd"
   xmlns:inkscape="http://www.inkscape.org/namespaces/inkscape"
   version="1.1"
   id="Capa_1"
   x="0px"
   y="0px"
   viewBox="0 0 32.000001 32.000001"
   xml:space="preserve"
   inkscape:version="0.92.5 (2060ec1f9f, 2020-04-08)"
   sodipodi:docname="ViewPreferences.svg"
   width="32"
   height="32"
   inkscape:export-filename="/media/psf/Home/Documents/Code/TrenchBroom_qt/app/resources/graphics/images/ViewPreferences.png"
   inkscape:export-xdpi="96"
   inkscape:export-ydpi="96"><metadata
     id="metadata3454"><rdf:RDF><cc:Work
         rdf:about=""><dc:format>image/svg+xml</dc:format><dc:type
           rdf:resource="http://purl.org/dc/dcmitype/StillImage" /><dc:title></dc:title></cc:Work></rdf:RDF></metadata><defs
     id="defs3452" /><sodipodi:namedview
     pagecolor="#ffffff"
     bordercolor="#666666"
     borderopacity="1"
     objecttolerance="10"
     gridtolerance="10000"
     guidetolerance="10"
     inkscape:pageopacity="0"
     inkscape:pageshadow="2"
     inkscape:window-width="2107"
     inkscape:window-height="1169"
     id="namedview3450"
     showgrid="true"
     inkscape:zoom="30.931267"
     inkscape:cx="3.6122861"
     inkscape:cy="9.4791197"
     inkscape:window-x="72"
     inkscape:window-y="30"
     inkscape:window-maximized="0"
     inkscape:current-layer="Capa_1"
     inkscape:snap-grids="true"
     inkscape:snap-nodes="true"
     inkscape:snap-others="false"
     inkscape:snap-global="true"><inkscape:grid
       type="xygrid"
       id="grid4534"
       empspacing="4" /></sodipodi:namedview><path
     inkscape:connector-curvature="0"
     style="fill:#3f3f3f;fill-opacity:1;stroke:none;stroke-width:1.00000012;stroke-opacity:1"
     id="path3418"
     d="M 26.971274,2.0228598 4.9944353,2.0114303 C 3,2.0103931 2,3 2.0114303,4.9944353 2.0075452,10.899451 2,16.31276 2,22 c 0,2 1,3 3.0172959,3 H 14 c -0.01031,0.83062 -0.734741,2.174072 -1.03233,2.965448 l -3.0058301,-0.0083 c -0.3844438,-0.0011 -0.9281622,0.598866 -0.9281622,1.05377 0,0.456206 0.576047,1.000908 0.9604919,1.000541 L 21.984285,30 c 0.384445,-3.66e-4 1.07317,-0.552516 1.07317,-1.008722 0,-0.454903 -0.6982,-1.006535 -1.082639,-1.008722 L 18.96767,27.965448 C 18.670676,27.174672 18.009801,25.83062 18,25 l 9.005565,-0.02286 C 29,24.972077 30,24 30,22 29.999998,15.431752 30,10.642404 30,5 30,3 29,2.0239149 26.971274,2.0228598 Z M 28,22 c -0.05056,0.656285 -0.444457,1.000006 -1,1 L 4.9812999,22.999777 C 4.4257561,22.999771 3.990751,22.652353 3.9944353,21.994134 L 4,21 H 28 Z M 4,19 3.9944353,4.9944353 C 3.9941738,4.3362065 4.4503217,4.0172959 5.0058656,4.0172959 l 22.0111294,0 c 0.555545,0 0.964896,0.3304416 0.965709,0.9885697 L 28,19 Z"
     sodipodi:nodetypes="ssccsccssssssccsccscsssccccsssscc" /><g
     id="g3420"
     transform="translate(0,-299.38699)" /><g
     id="g3422"
     transform="translate(0,-299.38699)" /><g
     id="g3424"
     transform="translate(0,-299.38699)" /><g
     id="g3426"
     transform="translate(0,-299.38699)" /><g
     id="g3428"
     transform="translate(0,-299.38699)" /><g
     id="g3430"
     transform="translate(0,-299.38699)" /><g
     id="g3432"
     transform="translate(0,-299.38699)" /><g
     id="g3434"
     transform="translate(0,-299.38699)" /><g
     id="g3436"
     transform="translate(0,-299.38699)" /><g
     id="g3438"
     transform="translate(0,-299.38699)" /><g
     id="g3440"
     transform="translate(0,-299.38699)" /><g
     id="g3442"
     transform="translate(0,-299.38699)" /><g
     id="g3444"
     transform="translate(0,-299.38699)" /><g
     id="g3446"
     transform="translate(0,-299.38699)" /><g
     id="g3448"
     transform="translate(0,-299.38699)" /></svg>